<?xml version="1.0" encoding="utf-8"?>
<!-- Generator: Adobe Illustrator 16.0.3, SVG Export Plug-In . SVG Version: 6.00 Build 0)  -->
<!DOCTYPE svg PUBLIC "-//W3C//DTD SVG 1.1//EN" "http://www.w3.org/Graphics/SVG/1.1/DTD/svg11.dtd">
<svg version="1.1" id="圖層_1" xmlns="http://www.w3.org/2000/svg" xmlns:xlink="http://www.w3.org/1999/xlink" x="0px" y="0px"
	 width="150px" height="150px" viewBox="0 0 150 150" enable-background="new 0 0 150 150" xml:space="preserve">
<g>
	<g>
		<path opacity="0.6" fill="#FFFFFF" d="M41.268,133.537l-25.756-10.905V28.216l25.756,9.88V133.537z"/>
		<path opacity="0.6" fill="#FFFFFF" d="M57.81,133.965V55.608c10.915,1.094,19.344,5.062,25.3,11.905
			c5.953,6.846,8.928,16.001,8.928,27.459c0,11.312-3.01,20.393-9.041,27.232C76.971,129.053,68.575,132.977,57.81,133.965z"/>
	</g>
	<g>
		<path opacity="0.6" fill="#DAE361" d="M31.755,144.571L6,133.666V39.25l25.755,9.878V144.571z"/>
		<path opacity="0.6" fill="#DAE361" d="M48.295,145V66.642c10.92,1.093,19.347,5.063,25.302,11.906
			c5.956,6.846,8.929,16,8.929,27.458c0,11.313-3.01,20.393-9.043,27.235C67.457,140.087,59.063,144.01,48.295,145z"/>
	</g>
</g>
</svg>
