<?xml version="1.0" encoding="utf-8"?>
<!-- Generator: Adobe Illustrator 21.1.0, SVG Export Plug-In . SVG Version: 6.00 Build 0)  -->
<svg version="1.1" id="圖層_1" xmlns="http://www.w3.org/2000/svg" xmlns:xlink="http://www.w3.org/1999/xlink" x="0px" y="0px"
	 viewBox="0 0 85.8 116.8" style="enable-background:new 0 0 85.8 116.8;" xml:space="preserve">
<style type="text/css">
	.st0{opacity:0.6;fill:#FBB3D8;enable-background:new    ;}
	.st1{opacity:0.6;enable-background:new    ;}
	.st2{opacity:0.6;fill:#00E18A;enable-background:new    ;}
</style>
<g>
	<g>
		<path class="st0" d="M35.3,105.3L9.5,94.4V0l25.8,9.9V105.3z"/>
		<path class="st0" d="M51.8,105.8V27.4c10.9,1.1,19.3,5.1,25.3,11.9s8.9,16,8.9,27.5c0,11.3-3,20.4-9,27.2
			C71,100.9,62.6,104.8,51.8,105.8z"/>
	</g>
	<g class="st1">
		<path class="st2" d="M25.8,116.4L0,105.5V11.1L25.8,21V116.4z"/>
		<path class="st2" d="M42.3,116.8V38.4c10.9,1.1,19.3,5.1,25.3,11.9s8.9,16,8.9,27.5c0,11.3-3,20.4-9,27.2
			C61.5,111.9,53.1,115.8,42.3,116.8z"/>
	</g>
</g>
</svg>
