<?xml version="1.0" standalone="no"?>
<!DOCTYPE svg PUBLIC "-//W3C//DTD SVG 20010904//EN"
 "http://www.w3.org/TR/2001/REC-SVG-20010904/DTD/svg10.dtd">
<svg version="1.0" xmlns="http://www.w3.org/2000/svg"
 width="512.000000pt" height="512.000000pt" viewBox="0 0 512.000000 512.000000"
 preserveAspectRatio="xMidYMid meet">
<metadata>
Created by potrace 1.11, written by Peter Selinger 2001-2013
</metadata>
<g transform="translate(0.000000,512.000000) scale(0.100000,-0.100000)"
fill="#000000" stroke="none">
<path d="M430 4868 c-70 -27 -141 -99 -169 -170 -20 -53 -20 -72 -20 -2124 -1
-1859 1 -2075 15 -2123 17 -60 22 -67 81 -127 24 -24 63 -50 95 -62 53 -21 57
-21 2148 -19 l2095 2 42 23 c66 35 110 79 140 140 l28 57 3 2087 2 2087 -21
55 c-28 77 -97 146 -172 175 l-58 21 -2077 -1 -2077 0 -55 -21z"/>
</g>
</svg>
